{"asset":{"version":"2.0","generator":"gltfpack 1.2"},"extensionsUsed":["KHR_mesh_quantization","KHR_texture_transform","KHR_materials_clearcoat","EXT_texture_webp"],"extensionsRequired":["KHR_mesh_quantization","EXT_texture_webp"],"buffers":[{"uri":"yizhu-crafted-mobile-v7.bin","byteLength":1567452}],"bufferViews":[{"buffer":0,"byteOffset":0,"byteLength":24718},{"buffer":0,"byteOffset":24720,"byteLength":286163},{"buffer":0,"byteOffset":310884,"byteLength":95111},{"buffer":0,"byteOffset":405996,"byteLength":26849},{"buffer":0,"byteOffset":432848,"byteLength":29988},{"buffer":0,"byteOffset":462836,"byteLength":23362},{"buffer":0,"byteOffset":486200,"byteLength":220638},{"buffer":0,"byteOffset":706840,"byteLength":104910},{"buffer":0,"byteOffset":811752,"byteLength":14791},{"buffer":0,"byteOffset":826544,"byteLength":174064,"byteStride":8,"target":34962},{"buffer":0,"byteOffset":1000608,"byteLength":87032,"byteStride":4,"target":34962},{"buffer":0,"byteOffset":1087640,"byteLength":80364,"byteStride":4,"target":34962},{"buffer":0,"byteOffset":1168004,"byteLength":227706,"target":34963},{"buffer":0,"byteLength":47112,"byteOffset":1395712,"target":34962},{"buffer":0,"byteLength":47112,"byteOffset":1442824,"target":34962},{"buffer":0,"byteLength":31408,"byteOffset":1489936,"target":34962},{"buffer":0,"byteLength":31408,"byteOffset":1521344,"target":34962},{"buffer":0,"byteLength":14700,"byteOffset":1552752,"target":34963}],"accessors":[{"bufferView":9,"byteOffset":0,"componentType":5123,"count":504,"type":"VEC3","min":[2175,0,2283],"max":[2463,12960,2355]},{"bufferView":10,"byteOffset":0,"componentType":5120,"count":504,"type":"VEC3","normalized":true},{"bufferView":11,"byteOffset":0,"componentType":5123,"count":504,"type":"VEC2","normalized":true},{"bufferView":12,"byteOffset":0,"componentType":5123,"count":768,"type":"SCALAR"},{"bufferView":9,"byteOffset":4032,"componentType":5123,"count":8597,"type":"VEC3","min":[43,7524,43],"max":[4595,8100,4595]},{"bufferView":10,"byteOffset":2016,"componentType":5120,"count":8597,"type":"VEC3","normalized":true},{"bufferView":11,"byteOffset":2016,"componentType":5123,"count":8597,"type":"VEC2","normalized":true},{"bufferView":12,"byteOffset":1536,"componentType":5123,"count":51117,"type":"SCALAR"},{"bufferView":9,"byteOffset":72808,"componentType":5123,"count":8600,"type":"VEC3","min":[43,14690,43],"max":[4595,15411,4595]},{"bufferView":10,"byteOffset":36404,"componentType":5120,"count":8600,"type":"VEC3","normalized":true},{"bufferView":11,"byteOffset":36404,"componentType":5123,"count":8600,"type":"VEC2","normalized":true},{"bufferView":12,"byteOffset":103770,"componentType":5123,"count":51114,"type":"SCALAR"},{"bufferView":9,"byteOffset":141608,"componentType":5123,"count":1046,"type":"VEC3","min":[0,6552,0],"max":[4638,16383,4638]},{"bufferView":10,"byteOffset":70804,"componentType":5120,"count":1046,"type":"VEC3","normalized":true},{"bufferView":11,"byteOffset":70804,"componentType":5123,"count":1046,"type":"VEC2","normalized":true},{"bufferView":11,"byteOffset":74988,"componentType":5123,"count":1046,"type":"VEC2","normalized":true},{"bufferView":12,"byteOffset":205998,"componentType":5123,"count":5286,"type":"SCALAR"},{"bufferView":9,"byteOffset":149976,"componentType":5123,"count":149,"type":"VEC3","min":[158,6552,160],"max":[4479,16383,4480]},{"bufferView":10,"byteOffset":74988,"componentType":5120,"count":149,"type":"VEC3","normalized":true},{"bufferView":11,"byteOffset":79172,"componentType":5123,"count":149,"type":"VEC2","normalized":true},{"bufferView":11,"byteOffset":79768,"componentType":5123,"count":149,"type":"VEC2","normalized":true},{"bufferView":12,"byteOffset":216570,"componentType":5123,"count":447,"type":"SCALAR"},{"bufferView":9,"byteOffset":151168,"componentType":5123,"count":2862,"type":"VEC3","min":[1959,11035,4379],"max":[2702,12367,4437]},{"bufferView":10,"byteOffset":75584,"componentType":5120,"count":2862,"type":"VEC3","normalized":true},{"bufferView":12,"byteOffset":217464,"componentType":5123,"count":5121,"type":"SCALAR"},{"bufferView":13,"componentType":5126,"count":3926,"max":[0.010632090270519257,0.16348402202129364,0.05892806992368736],"min":[-0.010298268351471051,0.12650474905967712,0.057207025587558746],"type":"VEC3"},{"bufferView":14,"componentType":5126,"count":3926,"type":"VEC3"},{"bufferView":15,"componentType":5126,"count":3926,"type":"VEC2"},{"bufferView":16,"componentType":5126,"count":3926,"type":"VEC2"},{"bufferView":17,"componentType":5123,"count":7350,"type":"SCALAR"}],"samplers":[{"magFilter":9729,"minFilter":9987}],"images":[{"name":"inscriptions-normal","bufferView":0,"mimeType":"image/jpeg"},{"name":"inscriptions-color","bufferView":1,"mimeType":"image/jpeg"},{"name":"inscriptions-roughness","bufferView":2,"mimeType":"image/jpeg"},{"name":"bamboo-ends","bufferView":3,"mimeType":"image/jpeg"},{"name":"collar-color","bufferView":4,"mimeType":"image/jpeg"},{"name":"wood-normal","bufferView":5,"mimeType":"image/webp"},{"name":"wood-color","bufferView":6,"mimeType":"image/jpeg"},{"name":"wood-roughness","bufferView":7,"mimeType":"image/webp"},{"name":"end-grain","bufferView":8,"mimeType":"image/jpeg"}],"textures":[{"sampler":0,"source":0},{"sampler":0,"source":1},{"sampler":0,"source":2},{"sampler":0,"source":3},{"sampler":0,"source":4},{"sampler":0,"extensions":{"EXT_texture_webp":{"source":5}}},{"sampler":0,"source":6},{"sampler":0,"extensions":{"EXT_texture_webp":{"source":7}}},{"sampler":0,"source":8}],"materials":[{"name":"Yizhu | Inscribed Guan Di heads","pbrMetallicRoughness":{"baseColorTexture":{"index":1,"extensions":{"KHR_texture_transform":{"offset":[-0.0000226291322,0],"scale":[1.60072851,1.60043633]}}},"metallicFactor":0,"metallicRoughnessTexture":{"index":2,"extensions":{"KHR_texture_transform":{"offset":[-0.0000226291322,0],"scale":[1.60072851,1.60043633]}}}},"normalTexture":{"index":0,"scale":0.5,"extensions":{"KHR_texture_transform":{"offset":[-0.0000226291322,0],"scale":[1.60072851,1.60043633]}}},"doubleSided":true,"extensions":{"KHR_materials_clearcoat":{"clearcoatRoughnessFactor":0.5}}},{"name":"Yizhu | individual bamboo ends","pbrMetallicRoughness":{"baseColorTexture":{"index":3,"extensions":{"KHR_texture_transform":{"offset":[0,0],"scale":[0,0]}}},"metallicFactor":0,"roughnessFactor":0.810000002},"doubleSided":true,"extensions":{"KHR_materials_clearcoat":{"clearcoatRoughnessFactor":0.5}}},{"name":"Yizhu | incised timber collar","pbrMetallicRoughness":{"baseColorTexture":{"index":4,"extensions":{"KHR_texture_transform":{"offset":[0,0],"scale":[16.003664,16.003664]}}},"metallicFactor":0,"roughnessFactor":0.589999974},"doubleSided":true,"extensions":{"KHR_materials_clearcoat":{"clearcoatRoughnessFactor":0.5}}},{"name":"Yizhu | satin timber PBR","pbrMetallicRoughness":{"baseColorTexture":{"index":6,"texCoord":1,"extensions":{"KHR_texture_transform":{"offset":[0,0],"scale":[16.003664,16.003664]}}},"metallicFactor":0,"metallicRoughnessTexture":{"index":7,"texCoord":1,"extensions":{"KHR_texture_transform":{"offset":[0,0],"scale":[16.003664,16.003664]}}}},"normalTexture":{"index":5,"texCoord":1,"scale":0.200000003,"extensions":{"KHR_texture_transform":{"offset":[0,0],"scale":[16.003664,16.003664]}}},"doubleSided":true,"extensions":{"KHR_materials_clearcoat":{"clearcoatFactor":0.0250000004,"clearcoatRoughnessFactor":0.5}}},{"name":"Yizhu | cut end grain","pbrMetallicRoughness":{"baseColorTexture":{"index":8,"texCoord":1,"extensions":{"KHR_texture_transform":{"offset":[0,0.00026768446],"scale":[15.9993792,15.9993792]}}},"metallicFactor":0,"roughnessFactor":0.810000002},"doubleSided":true,"extensions":{"KHR_materials_clearcoat":{"clearcoatRoughnessFactor":0.5}}},{"name":"Yizhu | engraved recess","pbrMetallicRoughness":{"baseColorFactor":[0.0209999997,0.0109999999,0.00499999989,1],"metallicFactor":0,"roughnessFactor":0.769999981},"doubleSided":true,"extensions":{"KHR_materials_clearcoat":{"clearcoatRoughnessFactor":0.5}}}],"meshes":[{"primitives":[{"attributes":{"POSITION":0,"NORMAL":1,"TEXCOORD_0":2},"indices":3,"material":0}]},{"primitives":[{"attributes":{"POSITION":4,"NORMAL":5,"TEXCOORD_0":6},"indices":7,"material":2}]},{"primitives":[{"attributes":{"POSITION":8,"NORMAL":9,"TEXCOORD_0":10},"indices":11,"material":2}]},{"primitives":[{"attributes":{"POSITION":12,"NORMAL":13,"TEXCOORD_0":14,"TEXCOORD_1":15},"indices":16,"material":3},{"attributes":{"POSITION":17,"NORMAL":18,"TEXCOORD_0":19,"TEXCOORD_1":20},"indices":21,"material":4}]},{"name":"Wood vessel full-detail engraving","primitives":[{"attributes":{"POSITION":25,"NORMAL":26,"TEXCOORD_0":27,"TEXCOORD_1":28},"indices":29,"material":5}]}],"nodes":[{"mesh":0,"translation":[-0.0644000024,-0.179928854,-0.0644000024],"scale":[0.0000277683503,0.0000277683503,0.0000277683503]},{"mesh":0,"translation":[-0.0644000024,-0.179928854,-0.0644000024],"scale":[0.0000277683503,0.0000277683503,0.0000277683503]},{"mesh":0,"translation":[-0.0644000024,-0.179928854,-0.0644000024],"scale":[0.0000277683503,0.0000277683503,0.0000277683503]},{"mesh":0,"translation":[-0.0644000024,-0.179928854,-0.0644000024],"scale":[0.0000277683503,0.0000277683503,0.0000277683503]},{"mesh":0,"translation":[-0.0644000024,-0.179928854,-0.0644000024],"scale":[0.0000277683503,0.0000277683503,0.0000277683503]},{"mesh":0,"translation":[-0.0644000024,-0.179928854,-0.0644000024],"scale":[0.0000277683503,0.0000277683503,0.0000277683503]},{"mesh":0,"translation":[-0.0644000024,-0.179928854,-0.0644000024],"scale":[0.0000277683503,0.0000277683503,0.0000277683503]},{"mesh":0,"translation":[-0.0644000024,-0.179928854,-0.0644000024],"scale":[0.0000277683503,0.0000277683503,0.0000277683503]},{"mesh":0,"translation":[-0.0644000024,-0.179928854,-0.0644000024],"scale":[0.0000277683503,0.0000277683503,0.0000277683503]},{"mesh":0,"translation":[-0.0644000024,-0.179928854,-0.0644000024],"scale":[0.0000277683503,0.0000277683503,0.0000277683503]},{"mesh":0,"translation":[-0.0644000024,-0.179928854,-0.0644000024],"scale":[0.0000277683503,0.0000277683503,0.0000277683503]},{"mesh":0,"translation":[-0.0644000024,-0.179928854,-0.0644000024],"scale":[0.0000277683503,0.0000277683503,0.0000277683503]},{"mesh":0,"translation":[-0.0644000024,-0.179928854,-0.0644000024],"scale":[0.0000277683503,0.0000277683503,0.0000277683503]},{"mesh":0,"translation":[-0.0644000024,-0.179928854,-0.0644000024],"scale":[0.0000277683503,0.0000277683503,0.0000277683503]},{"mesh":0,"translation":[-0.0644000024,-0.179928854,-0.0644000024],"scale":[0.0000277683503,0.0000277683503,0.0000277683503]},{"mesh":0,"translation":[-0.0644000024,-0.179928854,-0.0644000024],"scale":[0.0000277683503,0.0000277683503,0.0000277683503]},{"mesh":0,"translation":[-0.0644000024,-0.179928854,-0.0644000024],"scale":[0.0000277683503,0.0000277683503,0.0000277683503]},{"mesh":0,"translation":[-0.0644000024,-0.179928854,-0.0644000024],"scale":[0.0000277683503,0.0000277683503,0.0000277683503]},{"mesh":0,"translation":[-0.0644000024,-0.179928854,-0.0644000024],"scale":[0.0000277683503,0.0000277683503,0.0000277683503]},{"mesh":0,"translation":[-0.0644000024,-0.179928854,-0.0644000024],"scale":[0.0000277683503,0.0000277683503,0.0000277683503]},{"mesh":0,"translation":[-0.0644000024,-0.179928854,-0.0644000024],"scale":[0.0000277683503,0.0000277683503,0.0000277683503]},{"mesh":0,"translation":[-0.0644000024,-0.179928854,-0.0644000024],"scale":[0.0000277683503,0.0000277683503,0.0000277683503]},{"mesh":0,"translation":[-0.0644000024,-0.179928854,-0.0644000024],"scale":[0.0000277683503,0.0000277683503,0.0000277683503]},{"mesh":0,"translation":[-0.0644000024,-0.179928854,-0.0644000024],"scale":[0.0000277683503,0.0000277683503,0.0000277683503]},{"mesh":0,"translation":[-0.0644000024,-0.179928854,-0.0644000024],"scale":[0.0000277683503,0.0000277683503,0.0000277683503]},{"mesh":0,"translation":[-0.0644000024,-0.179928854,-0.0644000024],"scale":[0.0000277683503,0.0000277683503,0.0000277683503]},{"mesh":0,"translation":[-0.0644000024,-0.179928854,-0.0644000024],"scale":[0.0000277683503,0.0000277683503,0.0000277683503]},{"mesh":0,"translation":[-0.0644000024,-0.179928854,-0.0644000024],"scale":[0.0000277683503,0.0000277683503,0.0000277683503]},{"mesh":0,"translation":[-0.0644000024,-0.179928854,-0.0644000024],"scale":[0.0000277683503,0.0000277683503,0.0000277683503]},{"mesh":0,"translation":[-0.0644000024,-0.179928854,-0.0644000024],"scale":[0.0000277683503,0.0000277683503,0.0000277683503]},{"mesh":0,"translation":[-0.0644000024,-0.179928854,-0.0644000024],"scale":[0.0000277683503,0.0000277683503,0.0000277683503]},{"mesh":0,"translation":[-0.0644000024,-0.179928854,-0.0644000024],"scale":[0.0000277683503,0.0000277683503,0.0000277683503]},{"mesh":0,"translation":[-0.0644000024,-0.179928854,-0.0644000024],"scale":[0.0000277683503,0.0000277683503,0.0000277683503]},{"mesh":0,"translation":[-0.0644000024,-0.179928854,-0.0644000024],"scale":[0.0000277683503,0.0000277683503,0.0000277683503]},{"mesh":0,"translation":[-0.0644000024,-0.179928854,-0.0644000024],"scale":[0.0000277683503,0.0000277683503,0.0000277683503]},{"mesh":0,"translation":[-0.0644000024,-0.179928854,-0.0644000024],"scale":[0.0000277683503,0.0000277683503,0.0000277683503]},{"mesh":0,"translation":[-0.0644000024,-0.179928854,-0.0644000024],"scale":[0.0000277683503,0.0000277683503,0.0000277683503]},{"mesh":0,"translation":[-0.0644000024,-0.179928854,-0.0644000024],"scale":[0.0000277683503,0.0000277683503,0.0000277683503]},{"mesh":0,"translation":[-0.0644000024,-0.179928854,-0.0644000024],"scale":[0.0000277683503,0.0000277683503,0.0000277683503]},{"mesh":0,"translation":[-0.0644000024,-0.179928854,-0.0644000024],"scale":[0.0000277683503,0.0000277683503,0.0000277683503]},{"mesh":0,"translation":[-0.0644000024,-0.179928854,-0.0644000024],"scale":[0.0000277683503,0.0000277683503,0.0000277683503]},{"mesh":0,"translation":[-0.0644000024,-0.179928854,-0.0644000024],"scale":[0.0000277683503,0.0000277683503,0.0000277683503]},{"mesh":0,"translation":[-0.0644000024,-0.179928854,-0.0644000024],"scale":[0.0000277683503,0.0000277683503,0.0000277683503]},{"mesh":0,"translation":[-0.0644000024,-0.179928854,-0.0644000024],"scale":[0.0000277683503,0.0000277683503,0.0000277683503]},{"mesh":0,"translation":[-0.0644000024,-0.179928854,-0.0644000024],"scale":[0.0000277683503,0.0000277683503,0.0000277683503]},{"mesh":0,"translation":[-0.0644000024,-0.179928854,-0.0644000024],"scale":[0.0000277683503,0.0000277683503,0.0000277683503]},{"mesh":0,"translation":[-0.0644000024,-0.179928854,-0.0644000024],"scale":[0.0000277683503,0.0000277683503,0.0000277683503]},{"mesh":0,"translation":[-0.0644000024,-0.179928854,-0.0644000024],"scale":[0.0000277683503,0.0000277683503,0.0000277683503]},{"mesh":0,"translation":[-0.0644000024,-0.179928854,-0.0644000024],"scale":[0.0000277683503,0.0000277683503,0.0000277683503]},{"mesh":0,"translation":[-0.0644000024,-0.179928854,-0.0644000024],"scale":[0.0000277683503,0.0000277683503,0.0000277683503]},{"mesh":0,"translation":[-0.0644000024,-0.179928854,-0.0644000024],"scale":[0.0000277683503,0.0000277683503,0.0000277683503]},{"mesh":0,"translation":[-0.0644000024,-0.179928854,-0.0644000024],"scale":[0.0000277683503,0.0000277683503,0.0000277683503]},{"mesh":0,"translation":[-0.0644000024,-0.179928854,-0.0644000024],"scale":[0.0000277683503,0.0000277683503,0.0000277683503]},{"mesh":0,"translation":[-0.0644000024,-0.179928854,-0.0644000024],"scale":[0.0000277683503,0.0000277683503,0.0000277683503]},{"mesh":0,"translation":[-0.0644000024,-0.179928854,-0.0644000024],"scale":[0.0000277683503,0.0000277683503,0.0000277683503]},{"mesh":0,"translation":[-0.0644000024,-0.179928854,-0.0644000024],"scale":[0.0000277683503,0.0000277683503,0.0000277683503]},{"mesh":0,"translation":[-0.0644000024,-0.179928854,-0.0644000024],"scale":[0.0000277683503,0.0000277683503,0.0000277683503]},{"mesh":0,"translation":[-0.0644000024,-0.179928854,-0.0644000024],"scale":[0.0000277683503,0.0000277683503,0.0000277683503]},{"mesh":0,"translation":[-0.0644000024,-0.179928854,-0.0644000024],"scale":[0.0000277683503,0.0000277683503,0.0000277683503]},{"mesh":0,"translation":[-0.0644000024,-0.179928854,-0.0644000024],"scale":[0.0000277683503,0.0000277683503,0.0000277683503]},{"mesh":0,"translation":[-0.0644000024,-0.179928854,-0.0644000024],"scale":[0.0000277683503,0.0000277683503,0.0000277683503]},{"mesh":0,"translation":[-0.0644000024,-0.179928854,-0.0644000024],"scale":[0.0000277683503,0.0000277683503,0.0000277683503]},{"mesh":0,"translation":[-0.0644000024,-0.179928854,-0.0644000024],"scale":[0.0000277683503,0.0000277683503,0.0000277683503]},{"mesh":0,"translation":[-0.0644000024,-0.179928854,-0.0644000024],"scale":[0.0000277683503,0.0000277683503,0.0000277683503]},{"mesh":0,"translation":[-0.0644000024,-0.179928854,-0.0644000024],"scale":[0.0000277683503,0.0000277683503,0.0000277683503]},{"mesh":0,"translation":[-0.0644000024,-0.179928854,-0.0644000024],"scale":[0.0000277683503,0.0000277683503,0.0000277683503]},{"mesh":0,"translation":[-0.0644000024,-0.179928854,-0.0644000024],"scale":[0.0000277683503,0.0000277683503,0.0000277683503]},{"mesh":0,"translation":[-0.0644000024,-0.179928854,-0.0644000024],"scale":[0.0000277683503,0.0000277683503,0.0000277683503]},{"mesh":0,"translation":[-0.0644000024,-0.179928854,-0.0644000024],"scale":[0.0000277683503,0.0000277683503,0.0000277683503]},{"mesh":0,"translation":[-0.0644000024,-0.179928854,-0.0644000024],"scale":[0.0000277683503,0.0000277683503,0.0000277683503]},{"mesh":0,"translation":[-0.0644000024,-0.179928854,-0.0644000024],"scale":[0.0000277683503,0.0000277683503,0.0000277683503]},{"mesh":0,"translation":[-0.0644000024,-0.179928854,-0.0644000024],"scale":[0.0000277683503,0.0000277683503,0.0000277683503]},{"mesh":0,"translation":[-0.0644000024,-0.179928854,-0.0644000024],"scale":[0.0000277683503,0.0000277683503,0.0000277683503]},{"mesh":0,"translation":[-0.0644000024,-0.179928854,-0.0644000024],"scale":[0.0000277683503,0.0000277683503,0.0000277683503]},{"mesh":0,"translation":[-0.0644000024,-0.179928854,-0.0644000024],"scale":[0.0000277683503,0.0000277683503,0.0000277683503]},{"mesh":0,"translation":[-0.0644000024,-0.179928854,-0.0644000024],"scale":[0.0000277683503,0.0000277683503,0.0000277683503]},{"mesh":0,"translation":[-0.0644000024,-0.179928854,-0.0644000024],"scale":[0.0000277683503,0.0000277683503,0.0000277683503]},{"mesh":0,"translation":[-0.0644000024,-0.179928854,-0.0644000024],"scale":[0.0000277683503,0.0000277683503,0.0000277683503]},{"mesh":0,"translation":[-0.0644000024,-0.179928854,-0.0644000024],"scale":[0.0000277683503,0.0000277683503,0.0000277683503]},{"mesh":0,"translation":[-0.0644000024,-0.179928854,-0.0644000024],"scale":[0.0000277683503,0.0000277683503,0.0000277683503]},{"mesh":0,"translation":[-0.0644000024,-0.179928854,-0.0644000024],"scale":[0.0000277683503,0.0000277683503,0.0000277683503]},{"mesh":0,"translation":[-0.0644000024,-0.179928854,-0.0644000024],"scale":[0.0000277683503,0.0000277683503,0.0000277683503]},{"mesh":0,"translation":[-0.0644000024,-0.179928854,-0.0644000024],"scale":[0.0000277683503,0.0000277683503,0.0000277683503]},{"mesh":0,"translation":[-0.0644000024,-0.179928854,-0.0644000024],"scale":[0.0000277683503,0.0000277683503,0.0000277683503]},{"mesh":0,"translation":[-0.0644000024,-0.179928854,-0.0644000024],"scale":[0.0000277683503,0.0000277683503,0.0000277683503]},{"mesh":0,"translation":[-0.0644000024,-0.179928854,-0.0644000024],"scale":[0.0000277683503,0.0000277683503,0.0000277683503]},{"mesh":0,"translation":[-0.0644000024,-0.179928854,-0.0644000024],"scale":[0.0000277683503,0.0000277683503,0.0000277683503]},{"mesh":0,"translation":[-0.0644000024,-0.179928854,-0.0644000024],"scale":[0.0000277683503,0.0000277683503,0.0000277683503]},{"mesh":0,"translation":[-0.0644000024,-0.179928854,-0.0644000024],"scale":[0.0000277683503,0.0000277683503,0.0000277683503]},{"mesh":0,"translation":[-0.0644000024,-0.179928854,-0.0644000024],"scale":[0.0000277683503,0.0000277683503,0.0000277683503]},{"mesh":0,"translation":[-0.0644000024,-0.179928854,-0.0644000024],"scale":[0.0000277683503,0.0000277683503,0.0000277683503]},{"mesh":0,"translation":[-0.0644000024,-0.179928854,-0.0644000024],"scale":[0.0000277683503,0.0000277683503,0.0000277683503]},{"mesh":0,"translation":[-0.0644000024,-0.179928854,-0.0644000024],"scale":[0.0000277683503,0.0000277683503,0.0000277683503]},{"mesh":0,"translation":[-0.0644000024,-0.179928854,-0.0644000024],"scale":[0.0000277683503,0.0000277683503,0.0000277683503]},{"mesh":0,"translation":[-0.0644000024,-0.179928854,-0.0644000024],"scale":[0.0000277683503,0.0000277683503,0.0000277683503]},{"mesh":0,"translation":[-0.0644000024,-0.179928854,-0.0644000024],"scale":[0.0000277683503,0.0000277683503,0.0000277683503]},{"mesh":0,"translation":[-0.0644000024,-0.179928854,-0.0644000024],"scale":[0.0000277683503,0.0000277683503,0.0000277683503]},{"mesh":0,"translation":[-0.0644000024,-0.179928854,-0.0644000024],"scale":[0.0000277683503,0.0000277683503,0.0000277683503]},{"mesh":0,"translation":[-0.0644000024,-0.179928854,-0.0644000024],"scale":[0.0000277683503,0.0000277683503,0.0000277683503]},{"mesh":0,"translation":[-0.0644000024,-0.179928854,-0.0644000024],"scale":[0.0000277683503,0.0000277683503,0.0000277683503]},{"mesh":1,"translation":[-0.0644000024,-0.179928854,-0.0644000024],"scale":[0.0000277683503,0.0000277683503,0.0000277683503]},{"mesh":2,"translation":[-0.0644000024,-0.179928854,-0.0644000024],"scale":[0.0000277683503,0.0000277683503,0.0000277683503]},{"mesh":3,"translation":[-0.0644000024,-0.179928854,-0.0644000024],"scale":[0.0000277683503,0.0000277683503,0.0000277683503]},{"name":"Stick_001","translation":[-0.0092000002,0.201507598,0.0287999995],"rotation":[0,-0.00842837803,0,0.999964476],"children":[0]},{"name":"Stick_002","translation":[0.0275999997,0.200714961,0.00480000023],"rotation":[0,-0.00527308835,0,0.999986112],"children":[1]},{"name":"Stick_003","translation":[0.0275999997,0.202477157,-0.0287999995],"rotation":[0,-0.00534395268,0,0.999985814],"children":[2]},{"name":"Stick_004","translation":[-0.0092000002,0.201897696,-0.0335999988],"rotation":[0,0.00609459076,0,0.999981523],"children":[3]},{"name":"Stick_005","translation":[-0.0092000002,0.200275034,0.00480000023],"rotation":[0,-0.00619743625,0,0.999980807],"children":[4]},{"name":"Stick_006","translation":[0.0275999997,0.20108445,0.0240000002],"rotation":[0,-0.0025069369,0,0.99999696],"children":[5]},{"name":"Stick_007","translation":[-0.0275999997,0.201375917,0.0240000002],"rotation":[0,-0.00429606438,0,0.999990761],"children":[6]},{"name":"Stick_008","translation":[0.0184000004,0.202178016,0],"rotation":[0,-0.00199243403,0,1],"children":[7]},{"name":"Stick_009","translation":[0.0368000008,0.199544579,-0.0143999998],"rotation":[0,0.00686323456,0,0.999976456],"children":[8]},{"name":"Stick_010","translation":[-0.0184000004,0.202580124,0.0384000018],"rotation":[0,0.00452907756,0,0.999989748],"children":[9]},{"name":"Stick_011","translation":[0.0275999997,0.201186076,0.0143999998],"rotation":[0,0.00929459743,0,0.999956906],"children":[10]},{"name":"Stick_012","translation":[0,0.202735186,0.0335999988],"rotation":[0,-0.0122681297,0,0.999924839],"children":[11]},{"name":"Stick_013","translation":[-0.0368000008,0.200950786,-0.0240000002],"rotation":[0,-0.0120251486,0,0.9999277],"children":[12]},{"name":"Stick_014","translation":[-0.0275999997,0.200334102,-0.0192000009],"rotation":[0,-0.00645410968,0,0.999979198],"children":[13]},{"name":"Stick_015","translation":[0.0184000004,0.200845525,0.0287999995],"rotation":[0,0.00443245564,0,0.999990165],"children":[14]},{"name":"Stick_016","translation":[-0.0184000004,0.202443391,-0.0192000009],"rotation":[0,-0.00597924925,0,0.999982119],"children":[15]},{"name":"Stick_017","translation":[0,0.19904694,-0.00480000023],"rotation":[0,0.0124758277,0,0.999922276],"children":[16]},{"name":"Stick_018","translation":[0.0092000002,0.202128485,0],"rotation":[0,0.00125854567,0,1],"children":[17]},{"name":"Stick_019","translation":[0.0092000002,0.199449569,0.0432000011],"rotation":[0,-0.0111903409,0,0.999937475],"children":[18]},{"name":"Stick_020","translation":[0.0275999997,0.202736512,-0.0192000009],"rotation":[0,0.000733890629,0,1],"children":[19]},{"name":"Stick_021","translation":[0,0.202440187,-0.0432000011],"rotation":[0,0.00709173875,0,0.999974847],"children":[20]},{"name":"Stick_022","translation":[0,0.202004418,0.00480000023],"rotation":[0,0.00763120875,0,0.999970973],"children":[21]},{"name":"Stick_023","translation":[0.0368000008,0.200013518,0.0240000002],"rotation":[0,-0.00634697452,0,0.999979854],"children":[22]},{"name":"Stick_024","translation":[0,0.200734839,-0.0240000002],"rotation":[0,0.00669073034,0,0.999977708],"children":[23]},{"name":"Stick_025","translation":[-0.0368000008,0.202176958,0.00960000046],"rotation":[0,0.00643617194,0,0.999979377],"children":[24]},{"name":"Stick_026","translation":[-0.0275999997,0.201318145,0.00480000023],"rotation":[0,-0.000581400236,0,1],"children":[25]},{"name":"Stick_027","translation":[-0.0368000008,0.199777007,-0.00960000046],"rotation":[0,0.00416609738,0,0.999991417],"children":[26]},{"name":"Stick_028","translation":[0.0184000004,0.201614499,-0.0335999988],"rotation":[0,0.000361697894,0,1],"children":[27]},{"name":"Stick_029","translation":[0.0184000004,0.201907113,0.00480000023],"rotation":[0,0.0119818291,0,0.999928236],"children":[28]},{"name":"Stick_030","translation":[-0.0184000004,0.202774346,-0.00480000023],"rotation":[0,-0.00982123706,0,0.99995178],"children":[29]},{"name":"Stick_031","translation":[-0.0368000008,0.200149834,-0.0143999998],"rotation":[0,0.00282453001,0,0.999996006],"children":[30]},{"name":"Stick_032","translation":[-0.0092000002,0.201758906,-0.00960000046],"rotation":[0,-0.00538754975,0,0.999985576],"children":[31]},{"name":"Stick_033","translation":[0.0368000008,0.202723086,-0.0192000009],"rotation":[0,-0.000978352735,0,1],"children":[32]},{"name":"Stick_034","translation":[-0.0184000004,0.202060878,-0.0384000018],"rotation":[0,-0.011191858,0,0.999937475],"children":[33]},{"name":"Stick_035","translation":[-0.0184000004,0.200116411,-0.0287999995],"rotation":[0,-0.0119378204,0,0.999928772],"children":[34]},{"name":"Stick_036","translation":[0.0368000008,0.202164203,0.0192000009],"rotation":[0,0.000547511561,0,1],"children":[35]},{"name":"Stick_037","translation":[0.0184000004,0.202811241,-0.0192000009],"rotation":[0,0.00266940938,0,0.999996424],"children":[36]},{"name":"Stick_038","translation":[0.0368000008,0.200300053,0.00960000046],"rotation":[0,-0.00358515955,0,0.999993563],"children":[37]},{"name":"Stick_039","translation":[-0.0368000008,0.200500011,0.0192000009],"rotation":[0,-0.00754912104,0,0.999971509],"children":[38]},{"name":"Stick_040","translation":[-0.0092000002,0.199431598,0.0432000011],"rotation":[0,0.00374246389,0,0.999993086],"children":[39]},{"name":"Stick_041","translation":[0.0092000002,0.200255349,0.0240000002],"rotation":[0,-0.00115937099,0,1],"children":[40]},{"name":"Stick_042","translation":[0,0.201836705,0.0143999998],"rotation":[0,-0.00564692495,0,0.999984145],"children":[41]},{"name":"Stick_043","translation":[-0.0368000008,0.200758979,-0.0192000009],"rotation":[0,-0.00441044522,0,0.999990284],"children":[42]},{"name":"Stick_044","translation":[0.0092000002,0.200296447,-0.0432000011],"rotation":[0,0.0041577206,0,0.999991357],"children":[43]},{"name":"Stick_045","translation":[-0.0092000002,0.199394062,0.0335999988],"rotation":[0,-0.0025101183,0,0.999996841],"children":[44]},{"name":"Stick_046","translation":[-0.0275999997,0.199439198,0.0192000009],"rotation":[0,0.00424845144,0,0.999991],"children":[45]},{"name":"Stick_047","translation":[0.0184000004,0.200191617,-0.00480000023],"rotation":[0,0.0116261858,0,0.999932408],"children":[46]},{"name":"Stick_048","translation":[0.0092000002,0.200930893,-0.0287999995],"rotation":[0,0.00404690858,0,0.999991834],"children":[47]},{"name":"Stick_049","translation":[0.0275999997,0.201095149,0.0335999988],"rotation":[0,0.00799338985,0,0.999968052],"children":[48]},{"name":"Stick_050","translation":[0,0.201802909,0],"rotation":[0,0.00352746388,0,0.999993801],"children":[49]},{"name":"Stick_051","translation":[-0.0184000004,0.199128181,0],"rotation":[0,-0.00895137805,0,0.999959946],"children":[50]},{"name":"Stick_052","translation":[-0.0368000008,0.202003673,0.0240000002],"rotation":[0,-0.00220114249,0,0.999997675],"children":[51]},{"name":"Stick_053","translation":[0.0092000002,0.202902645,0.0335999988],"rotation":[0,0.00339286425,0,0.999994338],"children":[52]},{"name":"Stick_054","translation":[-0.0184000004,0.202293217,-0.0335999988],"rotation":[0,0.00612998707,0,0.999981225],"children":[53]},{"name":"Stick_055","translation":[-0.0275999997,0.202852413,-0.00960000046],"rotation":[0,0.00394486869,0,0.999992311],"children":[54]},{"name":"Stick_056","translation":[0.0092000002,0.202750728,0.0143999998],"rotation":[0,-0.00185761601,0,1],"children":[55]},{"name":"Stick_057","translation":[0,0.200069606,0.00960000046],"rotation":[0,-0.00974478666,0,0.999952614],"children":[56]},{"name":"Stick_058","translation":[-0.0184000004,0.200010166,0.0287999995],"rotation":[0,0.00985605922,0,0.999951422],"children":[57]},{"name":"Stick_059","translation":[0.0184000004,0.20163247,0.0335999988],"rotation":[0,-0.011415042,0,0.999934852],"children":[58]},{"name":"Stick_060","translation":[-0.0368000008,0.199111402,0.00480000023],"rotation":[0,-0.000986387371,0,1],"children":[59]},{"name":"Stick_061","translation":[0,0.201177835,0.0384000018],"rotation":[0,-0.00347729237,0,0.99999398],"children":[60]},{"name":"Stick_062","translation":[0.0184000004,0.199078992,0.0240000002],"rotation":[0,-0.00595769798,0,0.999982357],"children":[61]},{"name":"Stick_063","translation":[0.0092000002,0.202507496,0.0384000018],"rotation":[0,0.00563340494,0,0.999984145],"children":[62]},{"name":"Stick_064","translation":[0.0275999997,0.202273726,-0.0335999988],"rotation":[0,-0.00576077402,0,0.99998343],"children":[63]},{"name":"Stick_065","translation":[-0.0092000002,0.201671064,0.0192000009],"rotation":[0,-0.00756733026,0,0.99997139],"children":[64]},{"name":"Stick_066","translation":[-0.0092000002,0.200206935,0.00960000046],"rotation":[0,0.0114061544,0,0.999934971],"children":[65]},{"name":"Stick_067","translation":[0.0275999997,0.199853554,0],"rotation":[0,-0.00518701365,0,0.999986649],"children":[66]},{"name":"Stick_068","translation":[-0.0368000008,0.19987075,0.0143999998],"rotation":[0,0.0092067644,0,0.999957621],"children":[67]},{"name":"Stick_069","translation":[0.0184000004,0.201749191,-0.0287999995],"rotation":[0,0.00227223965,0,0.999997437],"children":[68]},{"name":"Stick_070","translation":[-0.0092000002,0.202403978,0.0143999998],"rotation":[0,-0.000910413277,0,1],"children":[69]},{"name":"Stick_071","translation":[0,0.202663749,-0.0192000009],"rotation":[0,0.00692606717,0,0.999976039],"children":[70]},{"name":"Stick_072","translation":[-0.0275999997,0.200197667,0.0143999998],"rotation":[0,-0.00659983046,0,0.999978244],"children":[71]},{"name":"Stick_073","translation":[0,0.201149032,0.0432000011],"rotation":[0,-0.00134739792,0,1],"children":[72]},{"name":"Stick_074","translation":[-0.0184000004,0.2021593,-0.0240000002],"rotation":[0,0.00380663644,0,0.999992847],"children":[73]},{"name":"Stick_075","translation":[0.0184000004,0.201970324,0.0192000009],"rotation":[0,0.00257948972,0,0.999996662],"children":[74]},{"name":"Stick_076","translation":[0,0.200055599,-0.0335999988],"rotation":[0,0.00609879754,0,0.999981403],"children":[75]},{"name":"Stick_077","translation":[-0.0092000002,0.202926129,0.0384000018],"rotation":[0,0.00343013834,0,0.999994218],"children":[76]},{"name":"Stick_078","translation":[0.0368000008,0.201843783,0],"rotation":[0,-0.00666320324,0,0.999977827],"children":[77]},{"name":"Stick_079","translation":[-0.0275999997,0.199471876,0.0287999995],"rotation":[0,-0.00129937683,0,1],"children":[78]},{"name":"Stick_080","translation":[0.0275999997,0.201374412,0.0192000009],"rotation":[0,0.00568021461,0,0.999983966],"children":[79]},{"name":"Stick_081","translation":[0.0368000008,0.200896204,-0.00480000023],"rotation":[0,0.00109295326,0,1],"children":[80]},{"name":"Stick_082","translation":[0.0184000004,0.199353978,-0.0240000002],"rotation":[0,-0.0113008041,0,0.999936163],"children":[81]},{"name":"Stick_083","translation":[0.0368000008,0.199486554,0.0143999998],"rotation":[0,-0.00453169225,0,0.999989748],"children":[82]},{"name":"Stick_084","translation":[-0.0275999997,0.199972928,0],"rotation":[0,-0.00892791245,0,0.999960244],"children":[83]},{"name":"Stick_085","translation":[-0.0092000002,0.200353816,-0.0432000011],"rotation":[0,-0.00407863827,0,0.999991775],"children":[84]},{"name":"Stick_086","translation":[-0.0368000008,0.202296689,0],"rotation":[0,0.0108791236,0,0.999940813],"children":[85]},{"name":"Stick_087","translation":[0.0275999997,0.202975154,0.00960000046],"rotation":[0,0.00593290199,0,0.999982417],"children":[86]},{"name":"Stick_088","translation":[0.0092000002,0.199044943,0.00480000023],"rotation":[0,-0.00654967315,0,0.999978542],"children":[87]},{"name":"Stick_089","translation":[-0.0275999997,0.202995852,-0.0287999995],"rotation":[0,0.00489694346,0,0.999988019],"children":[88]},{"name":"Stick_090","translation":[0.0092000002,0.202431425,-0.0192000009],"rotation":[0,-0.00750720082,0,0.999971807],"children":[89]},{"name":"Stick_091","translation":[-0.0092000002,0.199961469,-0.0287999995],"rotation":[0,-0.0100462167,0,0.999949634],"children":[90]},{"name":"Stick_092","translation":[0,0.201099411,0.0192000009],"rotation":[0,-0.00335560925,0,0.999994457],"children":[91]},{"name":"Stick_093","translation":[0.0184000004,0.200883135,-0.0143999998],"rotation":[0,-0.00904178526,0,0.999959111],"children":[92]},{"name":"Stick_094","translation":[-0.0184000004,0.199102804,-0.00960000046],"rotation":[0,-0.00284512551,0,0.999995947],"children":[93]},{"name":"Stick_095","translation":[0.0092000002,0.202706158,-0.00480000023],"rotation":[0,0.00381505233,0,0.999992728],"children":[94]},{"name":"Stick_096","translation":[-0.0184000004,0.201286525,0.00960000046],"rotation":[0,-0.0109228259,0,0.999940336],"children":[95]},{"name":"Stick_097","translation":[-0.0092000002,0.200733766,-0.0384000018],"rotation":[0,-0.00327182701,0,0.999994636],"children":[96]},{"name":"Stick_098","translation":[0,0.20152244,0.0287999995],"rotation":[0,-0.00242887065,0,0.999997139],"children":[97]},{"name":"Stick_099","translation":[0.0184000004,0.202206716,0.00960000046],"rotation":[0,-0.00562899746,0,0.999984145],"children":[98]},{"name":"Stick_100","translation":[0.0275999997,0.201914176,-0.00960000046],"rotation":[0,-0.0123813637,0,0.999923348],"children":[99]},{"name":"Timber incised collar 0","children":[100]},{"name":"Timber incised collar 1","children":[101]},{"name":"Wood_vessel_surface","children":[203,204,102,206]},{"name":"Wood_vessel_engraving","mesh":4}],"scenes":[{"name":"Scene","nodes":[103,104,105,106,107,108,109,110,111,112,113,114,115,116,117,118,119,120,121,122,123,124,125,126,127,128,129,130,131,132,133,134,135,136,137,138,139,140,141,142,143,144,145,146,147,148,149,150,151,152,153,154,155,156,157,158,159,160,161,162,163,164,165,166,167,168,169,170,171,172,173,174,175,176,177,178,179,180,181,182,183,184,185,186,187,188,189,190,191,192,193,194,195,196,197,198,199,200,201,202,205]}],"scene":0}