{"asset":{"generator":"Khronos glTF Blender I/O v5.2.40","version":"2.0"},"extensionsUsed":["KHR_materials_clearcoat","EXT_texture_webp"],"scene":0,"scenes":[{"name":"Scene","nodes":[0,1,2,3,4,5,6,7,8,9,10,11,12,13,14,15,16,17,18,19,20,21,22,23,24,25,26,27,28,29,30,31,32,33,34,35,36,37,38,39,40,41,42,43,44,45,46,47,48,49,50,51,52,53,54,55,56,57,58,59,60,61,62,63,64,65,66,67,68,69,70,71,72,73,74,75,76,77,78,79,80,81,82,83,84,85,86,87,88,89,90,91,92,93,94,95,96,97,98,99,102]}],"nodes":[{"mesh":0,"name":"Stick_001","rotation":[0,-0.008428378030657768,0,0.9999644756317139],"translation":[-0.009200000204145908,0.2015075981616974,0.02879999950528145]},{"mesh":0,"name":"Stick_002","rotation":[0,-0.005273088347166777,0,0.9999861121177673],"translation":[0.02759999968111515,0.20071496069431305,0.004800000227987766]},{"mesh":0,"name":"Stick_003","rotation":[0,-0.005343952681869268,0,0.9999858140945435],"translation":[0.02759999968111515,0.20247715711593628,-0.02879999950528145]},{"mesh":0,"name":"Stick_004","rotation":[0,0.00609459076076746,0,0.9999815225601196],"translation":[-0.009200000204145908,0.20189769566059113,-0.03359999880194664]},{"mesh":0,"name":"Stick_005","rotation":[0,-0.00619743624702096,0,0.9999808073043823],"translation":[-0.009200000204145908,0.20027503371238708,0.004800000227987766]},{"mesh":0,"name":"Stick_006","rotation":[0,-0.002506936900317669,0,0.9999969601631165],"translation":[0.02759999968111515,0.2010844498872757,0.024000000208616257]},{"mesh":0,"name":"Stick_007","rotation":[0,-0.004296064376831055,0,0.9999907612800598],"translation":[-0.02759999968111515,0.20137591660022736,0.024000000208616257]},{"mesh":0,"name":"Stick_008","rotation":[0,-0.0019924340303987265,0,1],"translation":[0.018400000408291817,0.2021780163049698,0]},{"mesh":0,"name":"Stick_009","rotation":[0,0.00686323456466198,0,0.9999764561653137],"translation":[0.03680000081658363,0.19954457879066467,-0.014399999752640724]},{"mesh":0,"name":"Stick_010","rotation":[0,0.004529077559709549,0,0.9999897480010986],"translation":[-0.018400000408291817,0.20258012413978577,0.03840000182390213]},{"mesh":0,"name":"Stick_011","rotation":[0,0.009294597432017326,0,0.9999569058418274],"translation":[0.02759999968111515,0.20118607580661774,0.014399999752640724]},{"mesh":0,"name":"Stick_012","rotation":[0,-0.012268129736185074,0,0.9999248385429382],"translation":[0,0.20273518562316895,0.03359999880194664]},{"mesh":0,"name":"Stick_013","rotation":[0,-0.01202514860779047,0,0.9999276995658875],"translation":[-0.03680000081658363,0.20095078647136688,-0.024000000208616257]},{"mesh":0,"name":"Stick_014","rotation":[0,-0.00645410967990756,0,0.9999791979789734],"translation":[-0.02759999968111515,0.2003341019153595,-0.019200000911951065]},{"mesh":0,"name":"Stick_015","rotation":[0,0.004432455636560917,0,0.9999901652336121],"translation":[0.018400000408291817,0.20084552466869354,0.02879999950528145]},{"mesh":0,"name":"Stick_016","rotation":[0,-0.005979249253869057,0,0.9999821186065674],"translation":[-0.018400000408291817,0.20244339108467102,-0.019200000911951065]},{"mesh":0,"name":"Stick_017","rotation":[0,0.01247582770884037,0,0.9999222755432129],"translation":[0,0.19904693961143494,-0.004800000227987766]},{"mesh":0,"name":"Stick_018","rotation":[0,0.0012585456715896726,0,1],"translation":[0.009200000204145908,0.20212848484516144,0]},{"mesh":0,"name":"Stick_019","rotation":[0,-0.011190340854227543,0,0.9999374747276306],"translation":[0.009200000204145908,0.1994495689868927,0.04320000112056732]},{"mesh":0,"name":"Stick_020","rotation":[0,0.0007338906289078295,0,1],"translation":[0.02759999968111515,0.2027365118265152,-0.019200000911951065]},{"mesh":0,"name":"Stick_021","rotation":[0,0.007091738749295473,0,0.9999748468399048],"translation":[0,0.20244018733501434,-0.04320000112056732]},{"mesh":0,"name":"Stick_022","rotation":[0,0.007631208747625351,0,0.9999709725379944],"translation":[0,0.20200441777706146,0.004800000227987766]},{"mesh":0,"name":"Stick_023","rotation":[0,-0.0063469745218753815,0,0.9999798536300659],"translation":[0.03680000081658363,0.20001351833343506,0.024000000208616257]},{"mesh":0,"name":"Stick_024","rotation":[0,0.006690730340778828,0,0.999977707862854],"translation":[0,0.20073483884334564,-0.024000000208616257]},{"mesh":0,"name":"Stick_025","rotation":[0,0.006436171941459179,0,0.9999793767929077],"translation":[-0.03680000081658363,0.20217695832252502,0.009600000455975533]},{"mesh":0,"name":"Stick_026","rotation":[0,-0.0005814002361148596,0,1],"translation":[-0.02759999968111515,0.2013181447982788,0.004800000227987766]},{"mesh":0,"name":"Stick_027","rotation":[0,0.00416609738022089,0,0.9999914169311523],"translation":[-0.03680000081658363,0.1997770071029663,-0.009600000455975533]},{"mesh":0,"name":"Stick_028","rotation":[0,0.0003616978938225657,0,1],"translation":[0.018400000408291817,0.20161449909210205,-0.03359999880194664]},{"mesh":0,"name":"Stick_029","rotation":[0,0.011981829069554806,0,0.9999282360076904],"translation":[0.018400000408291817,0.20190711319446564,0.004800000227987766]},{"mesh":0,"name":"Stick_030","rotation":[0,-0.009821237064898014,0,0.9999517798423767],"translation":[-0.018400000408291817,0.20277434587478638,-0.004800000227987766]},{"mesh":0,"name":"Stick_031","rotation":[0,0.002824530005455017,0,0.9999960064888],"translation":[-0.03680000081658363,0.20014983415603638,-0.014399999752640724]},{"mesh":0,"name":"Stick_032","rotation":[0,-0.005387549754232168,0,0.9999855756759644],"translation":[-0.009200000204145908,0.20175890624523163,-0.009600000455975533]},{"mesh":0,"name":"Stick_033","rotation":[0,-0.0009783527348190546,0,1],"translation":[0.03680000081658363,0.20272308588027954,-0.019200000911951065]},{"mesh":0,"name":"Stick_034","rotation":[0,-0.011191857978701591,0,0.9999374747276306],"translation":[-0.018400000408291817,0.20206087827682495,-0.03840000182390213]},{"mesh":0,"name":"Stick_035","rotation":[0,-0.011937820352613926,0,0.9999287724494934],"translation":[-0.018400000408291817,0.20011641085147858,-0.02879999950528145]},{"mesh":0,"name":"Stick_036","rotation":[0,0.0005475115613080561,0,1],"translation":[0.03680000081658363,0.2021642029285431,0.019200000911951065]},{"mesh":0,"name":"Stick_037","rotation":[0,0.0026694093830883503,0,0.9999964237213135],"translation":[0.018400000408291817,0.20281124114990234,-0.019200000911951065]},{"mesh":0,"name":"Stick_038","rotation":[0,-0.003585159545764327,0,0.9999935626983643],"translation":[0.03680000081658363,0.20030005276203156,0.009600000455975533]},{"mesh":0,"name":"Stick_039","rotation":[0,-0.007549121044576168,0,0.9999715089797974],"translation":[-0.03680000081658363,0.2005000114440918,0.019200000911951065]},{"mesh":0,"name":"Stick_040","rotation":[0,0.0037424638867378235,0,0.999993085861206],"translation":[-0.009200000204145908,0.19943159818649292,0.04320000112056732]},{"mesh":0,"name":"Stick_041","rotation":[0,-0.0011593709932640195,0,1],"translation":[0.009200000204145908,0.20025534927845,0.024000000208616257]},{"mesh":0,"name":"Stick_042","rotation":[0,-0.005646924953907728,0,0.9999841451644897],"translation":[0,0.2018367052078247,0.014399999752640724]},{"mesh":0,"name":"Stick_043","rotation":[0,-0.004410445224493742,0,0.9999902844429016],"translation":[-0.03680000081658363,0.20075897872447968,-0.019200000911951065]},{"mesh":0,"name":"Stick_044","rotation":[0,0.004157720599323511,0,0.9999913573265076],"translation":[0.009200000204145908,0.20029644668102264,-0.04320000112056732]},{"mesh":0,"name":"Stick_045","rotation":[0,-0.0025101182982325554,0,0.9999968409538269],"translation":[-0.009200000204145908,0.19939406216144562,0.03359999880194664]},{"mesh":0,"name":"Stick_046","rotation":[0,0.004248451441526413,0,0.9999909996986389],"translation":[-0.02759999968111515,0.19943919777870178,0.019200000911951065]},{"mesh":0,"name":"Stick_047","rotation":[0,0.011626185849308968,0,0.9999324083328247],"translation":[0.018400000408291817,0.20019161701202393,-0.004800000227987766]},{"mesh":0,"name":"Stick_048","rotation":[0,0.00404690857976675,0,0.9999918341636658],"translation":[0.009200000204145908,0.2009308934211731,-0.02879999950528145]},{"mesh":0,"name":"Stick_049","rotation":[0,0.00799338985234499,0,0.9999680519104004],"translation":[0.02759999968111515,0.20109514892101288,0.03359999880194664]},{"mesh":0,"name":"Stick_050","rotation":[0,0.0035274638794362545,0,0.9999938011169434],"translation":[0,0.20180290937423706,0]},{"mesh":0,"name":"Stick_051","rotation":[0,-0.008951378054916859,0,0.9999599456787109],"translation":[-0.018400000408291817,0.1991281807422638,0]},{"mesh":0,"name":"Stick_052","rotation":[0,-0.0022011424880474806,0,0.9999976754188538],"translation":[-0.03680000081658363,0.20200367271900177,0.024000000208616257]},{"mesh":0,"name":"Stick_053","rotation":[0,0.003392864251509309,0,0.9999943375587463],"translation":[0.009200000204145908,0.2029026448726654,0.03359999880194664]},{"mesh":0,"name":"Stick_054","rotation":[0,0.006129987072199583,0,0.9999812245368958],"translation":[-0.018400000408291817,0.20229321718215942,-0.03359999880194664]},{"mesh":0,"name":"Stick_055","rotation":[0,0.003944868687540293,0,0.999992311000824],"translation":[-0.02759999968111515,0.20285241305828094,-0.009600000455975533]},{"mesh":0,"name":"Stick_056","rotation":[0,-0.0018576160073280334,0,1],"translation":[0.009200000204145908,0.20275072753429413,0.014399999752640724]},{"mesh":0,"name":"Stick_057","rotation":[0,-0.009744786657392979,0,0.9999526143074036],"translation":[0,0.2000696063041687,0.009600000455975533]},{"mesh":0,"name":"Stick_058","rotation":[0,0.009856059215962887,0,0.9999514222145081],"translation":[-0.018400000408291817,0.20001016557216644,0.02879999950528145]},{"mesh":0,"name":"Stick_059","rotation":[0,-0.011415041983127594,0,0.9999348521232605],"translation":[0.018400000408291817,0.20163246989250183,0.03359999880194664]},{"mesh":0,"name":"Stick_060","rotation":[0,-0.0009863873710855842,0,1],"translation":[-0.03680000081658363,0.19911140203475952,0.004800000227987766]},{"mesh":0,"name":"Stick_061","rotation":[0,-0.0034772923681885004,0,0.9999939799308777],"translation":[0,0.20117783546447754,0.03840000182390213]},{"mesh":0,"name":"Stick_062","rotation":[0,-0.005957697983831167,0,0.9999823570251465],"translation":[0.018400000408291817,0.1990789920091629,0.024000000208616257]},{"mesh":0,"name":"Stick_063","rotation":[0,0.005633404944092035,0,0.9999841451644897],"translation":[0.009200000204145908,0.20250749588012695,0.03840000182390213]},{"mesh":0,"name":"Stick_064","rotation":[0,-0.00576077401638031,0,0.9999834299087524],"translation":[0.02759999968111515,0.20227372646331787,-0.03359999880194664]},{"mesh":0,"name":"Stick_065","rotation":[0,-0.00756733026355505,0,0.9999713897705078],"translation":[-0.009200000204145908,0.2016710638999939,0.019200000911951065]},{"mesh":0,"name":"Stick_066","rotation":[0,0.011406154371798038,0,0.99993497133255],"translation":[-0.009200000204145908,0.2002069354057312,0.009600000455975533]},{"mesh":0,"name":"Stick_067","rotation":[0,-0.005187013652175665,0,0.9999866485595703],"translation":[0.02759999968111515,0.1998535543680191,0]},{"mesh":0,"name":"Stick_068","rotation":[0,0.00920676440000534,0,0.9999576210975647],"translation":[-0.03680000081658363,0.1998707503080368,0.014399999752640724]},{"mesh":0,"name":"Stick_069","rotation":[0,0.002272239653393626,0,0.9999974370002747],"translation":[0.018400000408291817,0.20174919068813324,-0.02879999950528145]},{"mesh":0,"name":"Stick_070","rotation":[0,-0.0009104132768698037,0,1],"translation":[-0.009200000204145908,0.2024039775133133,0.014399999752640724]},{"mesh":0,"name":"Stick_071","rotation":[0,0.0069260671734809875,0,0.9999760389328003],"translation":[0,0.20266374945640564,-0.019200000911951065]},{"mesh":0,"name":"Stick_072","rotation":[0,-0.006599830463528633,0,0.999978244304657],"translation":[-0.02759999968111515,0.20019766688346863,0.014399999752640724]},{"mesh":0,"name":"Stick_073","rotation":[0,-0.0013473979197442532,0,1],"translation":[0,0.20114903151988983,0.04320000112056732]},{"mesh":0,"name":"Stick_074","rotation":[0,0.0038066364359110594,0,0.999992847442627],"translation":[-0.018400000408291817,0.20215930044651031,-0.024000000208616257]},{"mesh":0,"name":"Stick_075","rotation":[0,0.0025794897228479385,0,0.9999966621398926],"translation":[0.018400000408291817,0.20197032392024994,0.019200000911951065]},{"mesh":0,"name":"Stick_076","rotation":[0,0.006098797544836998,0,0.9999814033508301],"translation":[0,0.20005559921264648,-0.03359999880194664]},{"mesh":0,"name":"Stick_077","rotation":[0,0.0034301383420825005,0,0.9999942183494568],"translation":[-0.009200000204145908,0.2029261291027069,0.03840000182390213]},{"mesh":0,"name":"Stick_078","rotation":[0,-0.006663203239440918,0,0.9999778270721436],"translation":[0.03680000081658363,0.20184378325939178,0]},{"mesh":0,"name":"Stick_079","rotation":[0,-0.0012993768323212862,0,1],"translation":[-0.02759999968111515,0.1994718760251999,0.02879999950528145]},{"mesh":0,"name":"Stick_080","rotation":[0,0.005680214613676071,0,0.9999839663505554],"translation":[0.02759999968111515,0.20137441158294678,0.019200000911951065]},{"mesh":0,"name":"Stick_081","rotation":[0,0.0010929532581940293,0,1],"translation":[0.03680000081658363,0.20089620351791382,-0.004800000227987766]},{"mesh":0,"name":"Stick_082","rotation":[0,-0.01130080409348011,0,0.9999361634254456],"translation":[0.018400000408291817,0.19935397803783417,-0.024000000208616257]},{"mesh":0,"name":"Stick_083","rotation":[0,-0.004531692247837782,0,0.9999897480010986],"translation":[0.03680000081658363,0.19948655366897583,0.014399999752640724]},{"mesh":0,"name":"Stick_084","rotation":[0,-0.008927912451326847,0,0.9999602437019348],"translation":[-0.02759999968111515,0.19997292757034302,0]},{"mesh":0,"name":"Stick_085","rotation":[0,-0.004078638274222612,0,0.999991774559021],"translation":[-0.009200000204145908,0.20035381615161896,-0.04320000112056732]},{"mesh":0,"name":"Stick_086","rotation":[0,0.010879123583436012,0,0.999940812587738],"translation":[-0.03680000081658363,0.2022966891527176,0]},{"mesh":0,"name":"Stick_087","rotation":[0,0.005932901985943317,0,0.9999824166297913],"translation":[0.02759999968111515,0.20297515392303467,0.009600000455975533]},{"mesh":0,"name":"Stick_088","rotation":[0,-0.006549673154950142,0,0.9999785423278809],"translation":[0.009200000204145908,0.19904494285583496,0.004800000227987766]},{"mesh":0,"name":"Stick_089","rotation":[0,0.004896943457424641,0,0.9999880194664001],"translation":[-0.02759999968111515,0.20299585163593292,-0.02879999950528145]},{"mesh":0,"name":"Stick_090","rotation":[0,-0.0075072008185088634,0,0.9999718070030212],"translation":[0.009200000204145908,0.20243142545223236,-0.019200000911951065]},{"mesh":0,"name":"Stick_091","rotation":[0,-0.010046216659247875,0,0.9999496340751648],"translation":[-0.009200000204145908,0.19996146857738495,-0.02879999950528145]},{"mesh":0,"name":"Stick_092","rotation":[0,-0.003355609253048897,0,0.9999944567680359],"translation":[0,0.20109941065311432,0.019200000911951065]},{"mesh":0,"name":"Stick_093","rotation":[0,-0.009041785262525082,0,0.9999591112136841],"translation":[0.018400000408291817,0.20088313519954681,-0.014399999752640724]},{"mesh":0,"name":"Stick_094","rotation":[0,-0.0028451255057007074,0,0.9999959468841553],"translation":[-0.018400000408291817,0.19910280406475067,-0.009600000455975533]},{"mesh":0,"name":"Stick_095","rotation":[0,0.003815052332356572,0,0.9999927282333374],"translation":[0.009200000204145908,0.20270615816116333,-0.004800000227987766]},{"mesh":0,"name":"Stick_096","rotation":[0,-0.010922825895249844,0,0.9999403357505798],"translation":[-0.018400000408291817,0.20128652453422546,0.009600000455975533]},{"mesh":0,"name":"Stick_097","rotation":[0,-0.003271827008575201,0,0.9999946355819702],"translation":[-0.009200000204145908,0.20073376595973969,-0.03840000182390213]},{"mesh":0,"name":"Stick_098","rotation":[0,-0.0024288706481456757,0,0.9999971389770508],"translation":[0,0.20152243971824646,0.02879999950528145]},{"mesh":0,"name":"Stick_099","rotation":[0,-0.0056289974600076675,0,0.9999841451644897],"translation":[0.018400000408291817,0.20220671594142914,0.009600000455975533]},{"mesh":0,"name":"Stick_100","rotation":[0,-0.012381363660097122,0,0.9999233484268188],"translation":[0.02759999968111515,0.20191417634487152,-0.009600000455975533]},{"mesh":1,"name":"Timber incised collar 0"},{"mesh":2,"name":"Timber incised collar 1"},{"children":[100,101],"mesh":3,"name":"Wood_vessel_surface"}],"materials":[{"doubleSided":true,"extensions":{"KHR_materials_clearcoat":{"clearcoatRoughnessFactor":0.5}},"name":"Yizhu | Inscribed Guan Di heads","normalTexture":{"index":0,"scale":0.5},"pbrMetallicRoughness":{"baseColorTexture":{"index":1},"metallicFactor":0,"metallicRoughnessTexture":{"index":2}}},{"doubleSided":true,"extensions":{"KHR_materials_clearcoat":{"clearcoatRoughnessFactor":0.5}},"name":"Yizhu | individual bamboo ends","pbrMetallicRoughness":{"baseColorTexture":{"index":3},"metallicFactor":0,"roughnessFactor":0.8100000023841858}},{"doubleSided":true,"extensions":{"KHR_materials_clearcoat":{"clearcoatRoughnessFactor":0.5}},"name":"Yizhu | incised timber collar","pbrMetallicRoughness":{"baseColorTexture":{"index":4},"metallicFactor":0,"roughnessFactor":0.5899999737739563}},{"doubleSided":true,"extensions":{"KHR_materials_clearcoat":{"clearcoatFactor":0.02500000037252903,"clearcoatRoughnessFactor":0.5}},"name":"Yizhu | satin timber PBR","normalTexture":{"index":5,"scale":0.20000000298023224,"texCoord":1},"pbrMetallicRoughness":{"baseColorTexture":{"index":6,"texCoord":1},"metallicFactor":0,"metallicRoughnessTexture":{"index":7,"texCoord":1}}},{"doubleSided":true,"extensions":{"KHR_materials_clearcoat":{"clearcoatRoughnessFactor":0.5}},"name":"Yizhu | cut end grain","pbrMetallicRoughness":{"baseColorTexture":{"index":8,"texCoord":1},"metallicFactor":0,"roughnessFactor":0.8100000023841858}},{"doubleSided":true,"extensions":{"KHR_materials_clearcoat":{"clearcoatRoughnessFactor":0.5}},"name":"Yizhu | engraved recess","pbrMetallicRoughness":{"baseColorFactor":[0.020999999716877937,0.010999999940395355,0.004999999888241291,1],"metallicFactor":0,"roughnessFactor":0.7699999809265137}}],"meshes":[{"name":"Bamboo craft 001","primitives":[{"attributes":{"POSITION":0,"NORMAL":1,"TEXCOORD_0":2},"indices":3,"material":0},{"attributes":{"POSITION":4,"NORMAL":5,"TEXCOORD_0":6},"indices":7,"material":1}]},{"name":"Cut scroll surface 0","primitives":[{"attributes":{"POSITION":8,"NORMAL":9,"TEXCOORD_0":10},"indices":11,"material":2}]},{"name":"Cut scroll surface 1","primitives":[{"attributes":{"POSITION":12,"NORMAL":13,"TEXCOORD_0":14},"indices":11,"material":2}]},{"name":"Continuous timber shell","primitives":[{"attributes":{"POSITION":15,"NORMAL":16,"TEXCOORD_0":17,"TEXCOORD_1":18},"indices":19,"material":3},{"attributes":{"POSITION":20,"NORMAL":21,"TEXCOORD_0":22,"TEXCOORD_1":23},"indices":24,"material":4},{"attributes":{"POSITION":25,"NORMAL":26,"TEXCOORD_0":27,"TEXCOORD_1":28},"indices":29,"material":5}]}],"textures":[{"sampler":0,"extensions":{"EXT_texture_webp":{"source":0}}},{"sampler":0,"extensions":{"EXT_texture_webp":{"source":1}}},{"sampler":0,"extensions":{"EXT_texture_webp":{"source":2}}},{"sampler":0,"source":3},{"sampler":0,"source":4},{"sampler":0,"extensions":{"EXT_texture_webp":{"source":5}}},{"sampler":0,"source":6},{"sampler":0,"extensions":{"EXT_texture_webp":{"source":7}}},{"sampler":0,"source":8}],"images":[{"bufferView":4,"mimeType":"image/webp","name":"inscriptions-normal"},{"bufferView":5,"mimeType":"image/webp","name":"inscriptions-color"},{"bufferView":6,"mimeType":"image/webp","name":"inscriptions-roughness"},{"bufferView":11,"mimeType":"image/jpeg","name":"bamboo-ends"},{"bufferView":16,"mimeType":"image/jpeg","name":"collar-color"},{"bufferView":25,"mimeType":"image/webp","name":"wood-normal"},{"bufferView":26,"mimeType":"image/jpeg","name":"wood-color"},{"bufferView":27,"mimeType":"image/webp","name":"wood-roughness"},{"bufferView":33,"mimeType":"image/jpeg","name":"end-grain"}],"accessors":[{"bufferView":0,"componentType":5126,"count":516,"max":[0.004000000189989805,0.179963618516922,0.0010000000474974513],"min":[-0.004000000189989805,-0.17996126413345337,-0.0010000000474974513],"type":"VEC3"},{"bufferView":1,"componentType":5126,"count":516,"type":"VEC3"},{"bufferView":2,"componentType":5126,"count":516,"type":"VEC2"},{"bufferView":3,"componentType":5123,"count":780,"type":"SCALAR"},{"bufferView":7,"componentType":5126,"count":180,"max":[0.0023514749482274055,0.18000000715255737,0.0009799605468288064],"min":[-0.0023514749482274055,-0.18000000715255737,-0.0009799605468288064],"type":"VEC3"},{"bufferView":8,"componentType":5126,"count":180,"type":"VEC3"},{"bufferView":9,"componentType":5126,"count":180,"type":"VEC2"},{"bufferView":10,"componentType":5123,"count":264,"type":"SCALAR"},{"bufferView":12,"componentType":5126,"count":66625,"max":[0.06319999694824219,0.04500000178813934,0.06319999694824219],"min":[-0.06319999694824219,0.028999999165534973,-0.06319999694824219],"type":"VEC3"},{"bufferView":13,"componentType":5126,"count":66625,"type":"VEC3"},{"bufferView":14,"componentType":5126,"count":66625,"type":"VEC2"},{"bufferView":15,"componentType":5125,"count":393216,"type":"SCALAR"},{"bufferView":17,"componentType":5126,"count":66625,"max":[0.06319999694824219,0.24799999594688416,0.06319999694824219],"min":[-0.06319999694824219,0.2280000001192093,-0.06319999694824219],"type":"VEC3"},{"bufferView":18,"componentType":5126,"count":66625,"type":"VEC3"},{"bufferView":19,"componentType":5126,"count":66625,"type":"VEC2"},{"bufferView":20,"componentType":5126,"count":8013,"max":[0.06440000236034393,0.2750000059604645,0.06440000236034393],"min":[-0.06440000236034393,0.0020000000949949026,-0.06440000236034393],"type":"VEC3"},{"bufferView":21,"componentType":5126,"count":8013,"type":"VEC3"},{"bufferView":22,"componentType":5126,"count":8013,"type":"VEC2"},{"bufferView":23,"componentType":5126,"count":8013,"type":"VEC2"},{"bufferView":24,"componentType":5123,"count":40662,"type":"SCALAR"},{"bufferView":28,"componentType":5126,"count":1152,"max":[0.05999999865889549,0.2750000059604645,0.05999999865889549],"min":[-0.05999999865889549,0.0020000000949949026,-0.05999999865889549],"type":"VEC3"},{"bufferView":29,"componentType":5126,"count":1152,"type":"VEC3"},{"bufferView":30,"componentType":5126,"count":1152,"type":"VEC2"},{"bufferView":31,"componentType":5126,"count":1152,"type":"VEC2"},{"bufferView":32,"componentType":5123,"count":3456,"type":"SCALAR"},{"bufferView":34,"componentType":5126,"count":3926,"max":[0.010632090270519257,0.16348402202129364,0.058800000697374344],"min":[-0.009992058388888836,0.12650474905967712,0.05719470977783203],"type":"VEC3"},{"bufferView":35,"componentType":5126,"count":3926,"type":"VEC3"},{"bufferView":36,"componentType":5126,"count":3926,"type":"VEC2"},{"bufferView":37,"componentType":5126,"count":3926,"type":"VEC2"},{"bufferView":38,"componentType":5123,"count":7350,"type":"SCALAR"}],"bufferViews":[{"buffer":0,"byteLength":6192,"byteOffset":0,"target":34962},{"buffer":0,"byteLength":6192,"byteOffset":6192,"target":34962},{"buffer":0,"byteLength":4128,"byteOffset":12384,"target":34962},{"buffer":0,"byteLength":1560,"byteOffset":16512,"target":34963},{"buffer":0,"byteLength":393500,"byteOffset":18072},{"buffer":1,"byteLength":1111292,"byteOffset":0},{"buffer":2,"byteLength":604638,"byteOffset":0},{"buffer":2,"byteLength":2160,"byteOffset":604640,"target":34962},{"buffer":2,"byteLength":2160,"byteOffset":606800,"target":34962},{"buffer":2,"byteLength":1440,"byteOffset":608960,"target":34962},{"buffer":2,"byteLength":528,"byteOffset":610400,"target":34963},{"buffer":2,"byteLength":26849,"byteOffset":610928},{"buffer":2,"byteLength":799500,"byteOffset":637780,"target":34962},{"buffer":2,"byteLength":799500,"byteOffset":1437280,"target":34962},{"buffer":3,"byteLength":533000,"byteOffset":0,"target":34962},{"buffer":3,"byteLength":1572864,"byteOffset":533000,"target":34963},{"buffer":3,"byteLength":29988,"byteOffset":2105864},{"buffer":3,"byteLength":799500,"byteOffset":2135852,"target":34962},{"buffer":3,"byteLength":799500,"byteOffset":2935352,"target":34962},{"buffer":3,"byteLength":533000,"byteOffset":3734852,"target":34962},{"buffer":3,"byteLength":96156,"byteOffset":4267852,"target":34962},{"buffer":3,"byteLength":96156,"byteOffset":4364008,"target":34962},{"buffer":3,"byteLength":64104,"byteOffset":4460164,"target":34962},{"buffer":3,"byteLength":64104,"byteOffset":4524268,"target":34962},{"buffer":3,"byteLength":81324,"byteOffset":4588372,"target":34963},{"buffer":3,"byteLength":23362,"byteOffset":4669696},{"buffer":3,"byteLength":220638,"byteOffset":4693060},{"buffer":3,"byteLength":104910,"byteOffset":4913700},{"buffer":3,"byteLength":13824,"byteOffset":5018612,"target":34962},{"buffer":3,"byteLength":13824,"byteOffset":5032436,"target":34962},{"buffer":3,"byteLength":9216,"byteOffset":5046260,"target":34962},{"buffer":3,"byteLength":9216,"byteOffset":5055476,"target":34962},{"buffer":3,"byteLength":6912,"byteOffset":5064692,"target":34963},{"buffer":3,"byteLength":14791,"byteOffset":5071604},{"buffer":3,"byteLength":47112,"byteOffset":5086396,"target":34962},{"buffer":3,"byteLength":47112,"byteOffset":5133508,"target":34962},{"buffer":3,"byteLength":31408,"byteOffset":5180620,"target":34962},{"buffer":3,"byteLength":31408,"byteOffset":5212028,"target":34962},{"buffer":3,"byteLength":14700,"byteOffset":5243436,"target":34963}],"samplers":[{"magFilter":9729,"minFilter":9987}],"buffers":[{"uri":"yizhu-crafted-shared-v2-0.bin","byteLength":411572},{"uri":"yizhu-crafted-shared-v2-1.bin","byteLength":1111292},{"uri":"yizhu-crafted-shared-v2-2.bin","byteLength":2236780},{"uri":"yizhu-crafted-shared-v2-3.bin","byteLength":5258136}],"extensionsRequired":["EXT_texture_webp"]}